<svg xmlns="http://www.w3.org/2000/svg" viewBox="0 0 91.25 83.61"><defs><style>.cls-1,.cls-2,.cls-5{isolation:isolate;}.cls-2{font-size:9.81px;font-family:Quicksand-Medium, Quicksand Medium;font-weight:500;letter-spacing:0.03em;}.cls-2,.cls-5,.cls-8{fill:#fff;}.cls-3{letter-spacing:0.02em;}.cls-4{letter-spacing:0.03em;}.cls-5{font-size:8.54px;font-family:Quicksand-Regular, Quicksand;letter-spacing:0.03em;}.cls-6{letter-spacing:0.01em;}.cls-7{letter-spacing:0.03em;}</style></defs><title>1Fichier 1</title><g id="Calque_2" data-name="Calque 2"><g id="Calque_1-2" data-name="Calque 1"><g id="Groupe_57" data-name="Groupe 57"><g id="WEB_DEVELOPER" data-name="WEB DEVELOPER" class="cls-1"><text class="cls-2" transform="translate(6.07 68.84)">WEB DEVE<tspan class="cls-3" x="51.23" y="0">L</tspan><tspan class="cls-4" x="56.82" y="0">OPER</tspan></text></g><g id="Cédric_Monard" data-name="Cédric Monard" class="cls-1"><text class="cls-5" transform="translate(17.46 81.77)">Cédric Mona<tspan class="cls-6" x="52.37" y="0">r</tspan><tspan class="cls-7" x="55.72" y="0">d</tspan></text></g><g id="Groupe_56" data-name="Groupe 56"><g id="Groupe_29" data-name="Groupe 29"><g id="Groupe_28" data-name="Groupe 28"><g id="Groupe_27" data-name="Groupe 27"><g id="Groupe_25" data-name="Groupe 25"><path id="Tracé_28" data-name="Tracé 28" class="cls-8" d="M39.48,35.94c14.77.57,28.14-6.38,35.92-12.47-4.34-2-13.54-3.92-13.54-3.92-8,5.4-21.43,4.8-21.43,4.8,1.4,4.5,5.44,9.9,5.44,9.9-5.12-.54-8.61-6.93-8.61-6.93C24.45,31.61,1.85,11.92,1.85,11.92,11.9,26.76,25.44,35.39,39.48,35.94Z"/></g><g id="Groupe_26" data-name="Groupe 26"><path id="Tracé_29" data-name="Tracé 29" class="cls-8" d="M4.52,16.76C15,30.43,27.37,38.14,39.69,38.62c15,.57,28.33-7.42,36.9-14.23,5.74-4.55,9.68-7.8,10.34-8.34l1.75-.58L75.48,28.59l-.1.11,0,.14c0,.12-4.19,11.45-12.58,17.07L65.32,36l.6-2.35L64.2,35.34,52.26,47.16c-1.7.3-14.38,2.25-25.22-3.54l3.61-2.42,1.72-1.15L30.31,40l-9.25-.35C14.3,34.69,9.21,27.69,4.52,16.76M1.85,11.92c5.73,15.13,11.56,23,19,28.37l9.45.35-4.52,3c12.14,7.07,26.82,4.11,26.82,4.11l12.09-12-3,11.53C71.34,41.94,76,29.07,76,29.07L91.18,13.92,86.6,15.46s-4.09,3.38-10.43,8.41C68.35,30.09,54.86,38.53,39.72,38,25.47,37.4,12.05,27,1.85,11.92Z"/></g></g></g></g><circle id="Ellipse_2" data-name="Ellipse 2" class="cls-8" cx="51.98" cy="47.23" r="1.8"/><circle id="Ellipse_47" data-name="Ellipse 47" class="cls-8" cx="57.26" cy="18" r="1.8"/><circle id="Ellipse_3" data-name="Ellipse 3" class="cls-8" cx="44.12" cy="55.4" r="1.8"/><circle id="Ellipse_4" data-name="Ellipse 4" class="cls-8" cx="62.14" cy="47.27" r="1.24"/><circle id="Ellipse_5" data-name="Ellipse 5" class="cls-8" cx="54.75" cy="52.63" r="0.87"/><circle id="Ellipse_46" data-name="Ellipse 46" class="cls-8" cx="17.8" cy="7.15" r="0.87"/><circle id="Ellipse_6" data-name="Ellipse 6" class="cls-8" cx="90.38" cy="14.43" r="0.87"/><circle id="Ellipse_7" data-name="Ellipse 7" class="cls-8" cx="75.74" cy="28.73" r="0.96"/><circle id="Ellipse_8" data-name="Ellipse 8" class="cls-8" cx="64.38" cy="9.79" r="1.02"/><circle id="Ellipse_9" data-name="Ellipse 9" class="cls-8" cx="64.78" cy="35.58" r="1.28"/><circle id="Ellipse_10" data-name="Ellipse 10" class="cls-8" cx="57.1" cy="35.39" r="1.66"/><circle id="Ellipse_11" data-name="Ellipse 11" class="cls-8" cx="31.99" cy="40.49" r="1.46"/><circle id="Ellipse_12" data-name="Ellipse 12" class="cls-8" cx="28.59" cy="36.01" r="1.35"/><circle id="Ellipse_48" data-name="Ellipse 48" class="cls-8" cx="45.64" cy="10.03" r="1.35"/><circle id="Ellipse_13" data-name="Ellipse 13" class="cls-8" cx="30.74" cy="51.43" r="0.72"/><circle id="Ellipse_44" data-name="Ellipse 44" class="cls-8" cx="36.02" cy="23.01" r="0.72"/><circle id="Ellipse_14" data-name="Ellipse 14" class="cls-8" cx="7.42" cy="1.35" r="1.35"/><circle id="Ellipse_15" data-name="Ellipse 15" class="cls-8" cx="21.1" cy="39.65" r="2.01"/><circle id="Ellipse_16" data-name="Ellipse 16" class="cls-8" cx="34" cy="13.81" r="2.67"/><circle id="Ellipse_17" data-name="Ellipse 17" class="cls-8" cx="9.75" cy="39.61" r="1.97"/><circle id="Ellipse_45" data-name="Ellipse 45" class="cls-8" cx="17.88" cy="17.68" r="1.97"/><circle id="Ellipse_18" data-name="Ellipse 18" class="cls-8" cx="15.69" cy="28.38" r="0.94"/><circle id="Ellipse_19" data-name="Ellipse 19" class="cls-8" cx="11.29" cy="30.15" r="1.92"/><circle id="Ellipse_20" data-name="Ellipse 20" class="cls-8" cx="1.85" cy="11.92" r="1.85"/><circle id="Ellipse_21" data-name="Ellipse 21" class="cls-8" cx="79.33" cy="21.25" r="2.32"/></g></g></g></g></svg>