<svg xmlns="http://www.w3.org/2000/svg" viewBox="0 0 95.52 59.87"><defs><style>.cls-1{fill:#fff;}.cls-2{fill:#f3f3ff;}</style></defs><title>1Fichier 1</title><g id="Calque_2" data-name="Calque 2"><g id="Calque_1-2" data-name="Calque 1"><g id="Groupe_57" data-name="Groupe 57"><g id="Groupe_29" data-name="Groupe 29"><g id="Groupe_28" data-name="Groupe 28"><g id="Groupe_27" data-name="Groupe 27"><g id="Groupe_25" data-name="Groupe 25"><path id="Tracé_28" data-name="Tracé 28" class="cls-1" d="M41.32,37.62c15.47.59,29.46-6.68,37.6-13-4.54-2.12-14.17-4.1-14.17-4.1-8.35,5.65-22.43,5-22.43,5C43.79,30.21,48,35.85,48,35.85c-5.35-.56-9-7.25-9-7.25C25.59,33.09,1.93,12.48,1.93,12.48,12.46,28,26.63,37.05,41.32,37.62Z"/></g><g id="Groupe_26" data-name="Groupe 26"><path id="Tracé_29" data-name="Tracé 29" class="cls-2" d="M4.73,17.54c11,14.31,23.92,22.39,36.82,22.88,15.66.61,29.64-7.76,38.62-14.89,6-4.77,10.14-8.16,10.82-8.73l1.84-.61L79,29.93,78.9,30l-.05.15c0,.12-4.39,12-13.17,17.87l2.69-10.4L69,35.21,67.2,37,54.7,49.36c-1.78.32-15.05,2.35-26.4-3.71l3.79-2.53,1.79-1.2-2.16-.08L22,41.48C15,36.31,9.64,29,4.73,17.54m-2.8-5.06C7.94,28.31,14,36.56,21.81,42.17l9.89.37L27,45.71C39.67,53.11,55,50,55,50L67.69,37.49,64.58,49.56C74.68,43.9,79.5,30.43,79.5,30.43L95.44,14.58l-4.8,1.6S86.36,19.72,79.73,25c-8.19,6.5-22.31,15.35-38.15,14.73C26.66,39.15,12.61,28.23,1.93,12.48Z"/></g></g></g></g><circle id="Ellipse_2" data-name="Ellipse 2" class="cls-1" cx="54.41" cy="49.44" r="1.88"/><circle id="Ellipse_47" data-name="Ellipse 47" class="cls-1" cx="59.93" cy="18.84" r="1.88"/><circle id="Ellipse_3" data-name="Ellipse 3" class="cls-1" cx="46.18" cy="57.99" r="1.88"/><circle id="Ellipse_4" data-name="Ellipse 4" class="cls-1" cx="65.05" cy="49.48" r="1.29"/><circle id="Ellipse_5" data-name="Ellipse 5" class="cls-1" cx="57.31" cy="55.09" r="0.91"/><circle id="Ellipse_46" data-name="Ellipse 46" class="cls-1" cx="18.63" cy="7.49" r="0.91"/><circle id="Ellipse_6" data-name="Ellipse 6" class="cls-1" cx="94.6" cy="15.11" r="0.91"/><circle id="Ellipse_7" data-name="Ellipse 7" class="cls-1" cx="79.28" cy="30.07" r="1"/><circle id="Ellipse_8" data-name="Ellipse 8" class="cls-1" cx="67.39" cy="10.24" r="1.06"/><circle id="Ellipse_9" data-name="Ellipse 9" class="cls-1" cx="67.81" cy="37.24" r="1.34"/><circle id="Ellipse_10" data-name="Ellipse 10" class="cls-1" cx="59.77" cy="37.05" r="1.74"/><circle id="Ellipse_11" data-name="Ellipse 11" class="cls-1" cx="33.48" cy="42.38" r="1.53"/><circle id="Ellipse_12" data-name="Ellipse 12" class="cls-1" cx="29.92" cy="37.7" r="1.41"/><circle id="Ellipse_48" data-name="Ellipse 48" class="cls-1" cx="47.78" cy="10.49" r="1.41"/><circle id="Ellipse_13" data-name="Ellipse 13" class="cls-1" cx="32.18" cy="53.84" r="0.76"/><circle id="Ellipse_44" data-name="Ellipse 44" class="cls-1" cx="37.7" cy="24.08" r="0.76"/><circle id="Ellipse_14" data-name="Ellipse 14" class="cls-1" cx="7.77" cy="1.41" r="1.41"/><circle id="Ellipse_15" data-name="Ellipse 15" class="cls-1" cx="22.08" cy="41.5" r="2.11"/><circle id="Ellipse_16" data-name="Ellipse 16" class="cls-1" cx="35.59" cy="14.45" r="2.8"/><circle id="Ellipse_17" data-name="Ellipse 17" class="cls-1" cx="10.21" cy="41.46" r="2.07"/><circle id="Ellipse_45" data-name="Ellipse 45" class="cls-1" cx="18.71" cy="18.51" r="2.07"/><circle id="Ellipse_18" data-name="Ellipse 18" class="cls-1" cx="16.42" cy="29.71" r="0.98"/><circle id="Ellipse_19" data-name="Ellipse 19" class="cls-1" cx="11.82" cy="31.56" r="2.01"/><circle id="Ellipse_20" data-name="Ellipse 20" class="cls-1" cx="1.93" cy="12.48" r="1.93"/><circle id="Ellipse_21" data-name="Ellipse 21" class="cls-1" cx="83.04" cy="22.24" r="2.42"/></g></g></g></svg>